<svg width="407" height="151" viewBox="0 0 407 151" fill="none" xmlns="http://www.w3.org/2000/svg">
<path d="M26.2 110.5C22.0667 110.5 17.9667 110.1 13.9 109.3C9.9 108.567 6.6 107.567 4 106.3V95.4C7.33333 97 10.8333 98.2 14.5 99C18.1667 99.8 21.7667 100.2 25.3 100.2C29.7667 100.2 33.1667 99.3667 35.5 97.7C37.8333 96.0333 39 93.7333 39 90.8C39 88.7333 38.4667 87.0333 37.4 85.7C36.3333 84.3 34.7667 83.1 32.7 82.1C30.6333 81.0333 27.4667 79.6667 23.2 78C16.6667 75.3333 11.9333 72.3667 9 69.1C6.06667 65.8333 4.6 61.7667 4.6 56.9C4.6 53.1 5.63333 49.7333 7.7 46.8C9.76667 43.8667 12.6667 41.6 16.4 40C20.1333 38.4 24.4333 37.6 29.3 37.6C33.3 37.6 36.8333 37.9333 39.9 38.6C43.0333 39.2 46.1 40.1667 49.1 41.5V52.1C43.3 49.3 37.4333 47.9 31.5 47.9C27.2333 47.9 23.9333 48.7 21.6 50.3C19.2667 51.8333 18.1 54.0333 18.1 56.9C18.1 58.9667 18.6333 60.6667 19.7 62C20.7667 63.2667 22.1667 64.3667 23.9 65.3C25.7 66.1667 28.9 67.5667 33.5 69.5C38.1667 71.4333 41.8333 73.3333 44.5 75.2C47.2333 77.0667 49.2667 79.2667 50.6 81.8C52 84.2667 52.7 87.3 52.7 90.9C52.7 97.1 50.4667 101.933 46 105.4C41.5333 108.8 34.9333 110.5 26.2 110.5ZM64.7383 61H76.9383V66.8C79.5383 64.3333 82.3716 62.5 85.4383 61.3C88.505 60.1 92.0049 59.5 95.9383 59.5C100.805 59.5 105.138 60.5667 108.938 62.7C112.805 64.7667 115.805 67.7333 117.938 71.6C120.138 75.4 121.238 79.8333 121.238 84.9C121.238 89.9 120.138 94.3333 117.938 98.2C115.805 102.067 112.805 105.1 108.938 107.3C105.138 109.433 100.805 110.5 95.9383 110.5C92.2716 110.5 88.8049 110 85.5383 109C82.3383 107.933 79.6049 106.367 77.3383 104.3V130.9H64.7383V61ZM92.8383 100.6C97.3716 100.6 101.105 99.1333 104.038 96.2C106.972 93.2667 108.438 89.5 108.438 84.9C108.438 80.3 106.972 76.5667 104.038 73.7C101.105 70.8333 97.3716 69.4 92.8383 69.4C89.2383 69.4 86.0383 70.3667 83.2383 72.3C80.4383 74.2333 78.4716 76.8333 77.3383 80.1V89.8C78.4049 93.0667 80.3383 95.7 83.1383 97.7C86.0049 99.6333 89.2383 100.6 92.8383 100.6ZM156.803 110.5C151.203 110.5 146.27 109.5 142.003 107.5C137.803 105.433 134.536 102.5 132.203 98.7C129.87 94.8333 128.703 90.2667 128.703 85C128.703 79.8667 129.836 75.4 132.103 71.6C134.436 67.7333 137.736 64.7667 142.003 62.7C146.27 60.5667 151.203 59.5 156.803 59.5C162.403 59.5 167.303 60.5667 171.503 62.7C175.77 64.7667 179.07 67.7333 181.403 71.6C183.736 75.4 184.903 79.8667 184.903 85C184.903 90.2667 183.736 94.8333 181.403 98.7C179.07 102.5 175.77 105.433 171.503 107.5C167.303 109.5 162.403 110.5 156.803 110.5ZM156.803 100.6C161.403 100.6 165.07 99.1667 167.803 96.3C170.536 93.3667 171.903 89.6 171.903 85C171.903 80.1333 170.536 76.3333 167.803 73.6C165.136 70.8 161.47 69.4 156.803 69.4C152.136 69.4 148.436 70.8 145.703 73.6C143.036 76.3333 141.703 80.1333 141.703 85C141.703 89.6 143.07 93.3667 145.803 96.3C148.536 99.1667 152.203 100.6 156.803 100.6ZM196.863 61H209.063V68.7C210.997 66.1 213.73 64.1667 217.263 62.9C220.863 61.6333 224.963 61 229.563 61V70.6C224.697 70.6 220.463 71.3667 216.863 72.9C213.33 74.3667 210.863 76.7 209.463 79.9V109H196.863V61ZM258.886 110.5C253.619 110.5 249.619 109.033 246.886 106.1C244.153 103.167 242.786 99.0333 242.786 93.7V70.6H235.586V61H242.786V46.6H255.386V61H266.886V70.6H255.386V92.1C255.386 95.1667 255.953 97.3667 257.086 98.7C258.219 99.9667 260.286 100.6 263.286 100.6C265.353 100.6 267.386 100.133 269.386 99.2V108.8C266.519 109.933 263.019 110.5 258.886 110.5ZM297.102 110.5C293.636 110.5 289.936 110.1 286.002 109.3C282.069 108.5 279.002 107.4 276.802 106V95.3C279.402 96.9 282.502 98.2 286.102 99.2C289.702 100.133 293.102 100.6 296.302 100.6C299.502 100.6 301.836 100.333 303.302 99.8C304.769 99.2 305.502 98.1333 305.502 96.6C305.502 95.4 305.102 94.4333 304.302 93.7C303.569 92.9 302.336 92.2 300.602 91.6C298.936 90.9333 296.336 90.1333 292.802 89.2C288.802 88.0667 285.636 86.9 283.302 85.7C281.036 84.5 279.302 83 278.102 81.2C276.969 79.3333 276.402 76.9333 276.402 74C276.402 69.2 278.302 65.6 282.102 63.2C285.902 60.7333 291.036 59.5 297.502 59.5C300.836 59.5 304.136 59.8333 307.402 60.5C310.736 61.1 313.336 61.9667 315.202 63.1V73.4C313.202 72.2 310.769 71.2333 307.902 70.5C305.036 69.7667 302.102 69.4 299.102 69.4C295.836 69.4 293.369 69.7333 291.702 70.4C290.036 71 289.202 72.2 289.202 74C289.202 75.2 289.636 76.1667 290.502 76.9C291.436 77.5667 292.636 78.1667 294.102 78.7C295.569 79.1667 298.236 79.9 302.102 80.9C306.236 82.0333 309.469 83.2667 311.802 84.6C314.136 85.9333 315.802 87.5333 316.802 89.4C317.802 91.2667 318.302 93.6 318.302 96.4C318.302 100.667 316.469 104.1 312.802 106.7C309.202 109.233 303.969 110.5 297.102 110.5Z" fill="url(#paint0_linear_1_7)"/>
<path d="M400 75.5C400 76.2956 399.684 77.0587 399.121 77.6213C398.559 78.1839 397.796 78.5 397 78.5H378V97.5C378 98.2956 377.684 99.0587 377.121 99.6213C376.559 100.184 375.796 100.5 375 100.5C374.204 100.5 373.441 100.184 372.879 99.6213C372.316 99.0587 372 98.2956 372 97.5V78.5H353C352.204 78.5 351.441 78.1839 350.879 77.6213C350.316 77.0587 350 76.2956 350 75.5C350 74.7044 350.316 73.9413 350.879 73.3787C351.441 72.8161 352.204 72.5 353 72.5H372V53.5C372 52.7044 372.316 51.9413 372.879 51.3787C373.441 50.8161 374.204 50.5 375 50.5C375.796 50.5 376.559 50.8161 377.121 51.3787C377.684 51.9413 378 52.7044 378 53.5V72.5H397C397.796 72.5 398.559 72.8161 399.121 73.3787C399.684 73.9413 400 74.7044 400 75.5Z" fill="#FAFAFA"/>
<defs>
<linearGradient id="paint0_linear_1_7" x1="301" y1="75" x2="19" y2="75" gradientUnits="userSpaceOnUse">
<stop stop-color="#FACC15"/>
<stop offset="0.447914" stop-color="#4ADE80"/>
<stop offset="1" stop-color="#60A5FA"/>
</linearGradient>
</defs>
</svg>
